<svg width="127" height="128" viewBox="0 0 127 128" fill="none" xmlns="http://www.w3.org/2000/svg">
<g clip-path="url(#clip0_221_2)">
<rect width="127" height="128" fill="#35127C"/>
<path d="M47.5575 21.5714H58.2718V32.2857H47.5575V21.5714ZM58.2718 21.5714H68.986V32.2857H58.2718V21.5714ZM58.2718 10.8571H68.986V21.5714H58.2718V10.8571ZM68.986 21.5714H79.7003V32.2857H68.986V21.5714ZM68.986 32.2857H79.7003V43H68.986V32.2857ZM79.7003 32.2857H90.4146V43H79.7003V32.2857ZM58.2718 32.2857H68.986V43H58.2718V32.2857ZM47.5575 32.2857H58.2718V43H47.5575V32.2857ZM36.8432 32.2857H47.5575V43H36.8432V32.2857ZM36.8432 43H47.5575V53.7143H36.8432V43ZM26.1289 43H36.8432V53.7143H26.1289V43ZM47.5575 43H58.2718V53.7143H47.5575V43ZM36.8432 53.7143H47.5575V64.4286H36.8432V53.7143ZM36.8432 64.4286H47.5575V75.1429H36.8432V64.4286ZM36.8432 75.1429H47.5575V85.8571H36.8432V75.1429ZM47.5575 75.1429H58.2718V85.8571H47.5575V75.1429ZM58.2718 75.1429H68.986V85.8571H58.2718V75.1429ZM68.986 75.1429H79.7003V85.8571H68.986V75.1429ZM79.7003 75.1429H90.4146V85.8571H79.7003V75.1429ZM90.4146 75.1429H101.129V85.8571H90.4146V75.1429ZM90.4146 64.4286H101.129V75.1429H90.4146V64.4286ZM90.4146 53.7143H101.129V64.4286H90.4146V53.7143ZM90.4146 43H101.129V53.7143H90.4146V43ZM79.7003 43H90.4146V53.7143H79.7003V43ZM68.986 43H79.7003V53.7143H68.986V43ZM79.7003 53.7143H90.4146V64.4286H79.7003V53.7143ZM79.7003 64.4286H90.4146V75.1429H79.7003V64.4286ZM79.7003 85.8571H90.4146V96.5714H79.7003V85.8571ZM90.4146 85.8571H101.129V96.5714H90.4146V85.8571ZM90.4146 96.5714H101.129V107.286H90.4146V96.5714ZM90.4146 107.286H101.129V118H90.4146V107.286ZM79.7003 107.286H90.4146V118H79.7003V107.286ZM79.7003 96.5714H90.4146V107.286H79.7003V96.5714ZM68.986 85.8571H79.7003V96.5714H68.986V85.8571ZM58.2718 85.8571H68.986V96.5714H58.2718V85.8571ZM47.5575 85.8571H58.2718V96.5714H47.5575V85.8571ZM36.8432 85.8571H47.5575V96.5714H36.8432V85.8571ZM36.8432 96.5714H47.5575V107.286H36.8432V96.5714ZM36.8432 107.286H47.5575V118H36.8432V107.286ZM26.1289 107.286H36.8432V118H26.1289V107.286ZM26.1289 96.5714H36.8432V107.286H26.1289V96.5714ZM26.1289 85.8571H36.8432V96.5714H26.1289V85.8571ZM26.1289 75.1429H36.8432V85.8571H26.1289V75.1429ZM26.1289 64.4286H36.8432V75.1429H26.1289V64.4286ZM26.1289 53.7143H36.8432V64.4286H26.1289V53.7143Z" fill="white"/>
</g>
<defs>
<clipPath id="clip0_221_2">
<rect width="127" height="128" fill="white"/>
</clipPath>
</defs>
</svg>
